<svg width="108" height="101" viewBox="0 0 108 101" fill="none" xmlns="http://www.w3.org/2000/svg">
<path fill-rule="evenodd" clip-rule="evenodd" d="M56.6897 5.79795C56.6965 6.28263 56.6991 6.71522 56.6955 6.75924C56.6905 6.81961 56.4273 6.83935 55.627 6.83935H54.5652V9.85455V12.8697L55.6255 12.8506L56.6858 12.8314L56.7044 13.8248L56.7231 14.8181L57.8021 14.8357L58.8811 14.8534V17.8302V20.8069L57.8021 20.8246L56.7231 20.8422L56.7085 22.6366C56.7005 23.6236 56.6927 24.5247 56.6913 24.6393L56.6889 24.8476H55.627H54.5652V26.8326V28.8176L53.5205 28.8353L52.4757 28.853L52.4415 30.8397L52.4072 32.8263L51.3906 32.8375C50.8314 32.8436 50.359 32.8626 50.3406 32.8797C50.3223 32.8969 50.302 33.3388 50.2955 33.862L50.2836 34.813L49.2217 34.8451L48.1599 34.8771V35.8384V36.7997L47.098 36.8317L46.0362 36.8638L46.0181 38.8665L46 40.8692H48.1589H50.3178V39.8758V38.8825H52.4415H54.5652V37.8908V36.8991L55.6442 36.8814L56.7231 36.8638L56.742 35.8865C56.7583 35.0453 56.7464 34.9091 56.6564 34.9091C56.5584 34.9091 56.5104 34.6811 56.5485 34.3965C56.5689 34.2439 56.4331 34.8886 56.6564 34.9091C56.6391 34.7951 56.8125 34.9234 56.6564 34.9091C56.6757 35.0366 57.035 34.955 56.9112 34.9183C56.6807 34.8499 56.5703 34.678 56.6564 34.9091L56.9112 34.9183L57.8962 34.9018L58.8811 34.8854V33.8719V32.8584H59.9429H61.0048V31.865V30.8717H62.1009H63.197V29.8624V28.853H67.4615H71.726L71.7448 27.8436L71.7637 26.8343H73.8839H76.0041L76.023 25.857L76.0419 24.8796H77.0695H78.0971L78.1149 27.8757L78.1327 30.8717H77.053L75.9734 30.8716L75.9917 33.5153C76.0097 36.1113 76.0397 36.5325 76.2223 36.7534C76.2935 36.8396 76.2799 36.8369 76.1606 36.7417C76.0765 36.6745 76.005 36.6313 76.0019 36.6456C75.9873 36.7111 76.0161 37.2839 76.0506 37.6168C76.0716 37.8195 76.0628 37.9853 76.0311 37.9852C75.9658 37.9852 75.9797 38.7719 76.0489 38.9983C76.0798 39.099 76.1294 39.1345 76.205 39.1096C76.266 39.0895 76.2426 39.1268 76.1531 39.1925C75.9985 39.3058 75.9908 39.3461 76.0025 39.9805C76.0092 40.3482 75.9944 40.6986 75.9696 40.7591C75.9297 40.8566 75.8033 40.8692 74.8699 40.8692H73.8154V42.8542V44.8392L72.7707 44.8569L71.726 44.8746L71.7071 45.8519L71.6882 46.8292H70.6281H69.568V47.853V48.8767L68.4891 48.8944L67.4101 48.912L67.3912 49.8893L67.3723 50.8666H66.3122H65.2522V52.8854V54.9041H64.1903H63.1285V56.8891V58.8742L62.065 58.8918L61.0014 58.9095L61.0018 61.7552C61.002 63.3203 60.9839 64.6685 60.9617 64.7512C60.9217 64.9005 60.9145 64.9015 59.9013 64.9015H58.8811V68.9053V72.909L57.8021 72.9267L56.7231 72.9444V78.9364V84.9285L57.8021 84.9461L58.8811 84.9638V87.9793V90.9948L59.9258 90.9763L60.9705 90.9579V92.9099C60.9705 94.136 60.996 94.88 61.039 94.9106C61.0767 94.9374 61.5488 94.9561 62.0883 94.9522C62.6277 94.9483 63.0856 94.9606 63.1058 94.9795C63.126 94.9985 63.138 95.4138 63.1324 95.9025C63.1269 96.3912 63.1394 96.8328 63.1602 96.8839C63.1916 96.9604 63.3782 96.9733 64.2252 96.9575L65.2522 96.9383V97.9365V98.9348L67.4272 98.9171L69.6023 98.8993L69.5809 99.63C69.5647 100.181 69.5815 100.374 69.6494 100.414C69.6996 100.444 69.7064 100.468 69.6649 100.468C69.624 100.469 69.5855 100.589 69.5794 100.735L69.5682 101L69.9497 100.963C70.3866 100.921 70.5323 101.024 70.5323 100.808C70.5323 100.725 70.5166 100.829 70.5166 100.829C70.6083 100.719 70.586 100.829 70.5166 100.829C70.4758 100.878 70.5582 100.913 70.7817 100.942C70.9601 100.965 76.5416 100.982 83.1851 100.981L95.2642 100.977L95.2439 99.9383L95.2236 98.8993L97.3987 98.9171L99.5737 98.9348V97.9356V96.9364L100.618 96.9501L101.663 96.9637L101.697 95.954L101.732 94.9444L102.694 94.954C103.224 94.9594 103.702 94.9477 103.756 94.9281C103.84 94.898 103.854 94.5913 103.846 92.9385L103.836 90.9847L104.736 90.9775C105.231 90.9736 105.706 90.9758 105.791 90.9822L105.945 90.9938V87.9772V84.9605H106.972H108V78.9364V72.9123H106.972H105.945V68.9069V64.9015H104.925C104.044 64.9015 103.898 64.8872 103.861 64.7969C103.838 64.7395 103.82 63.3913 103.823 61.8009L103.827 58.9095L102.779 58.8774L101.732 58.8454L101.697 56.9548C101.679 55.915 101.638 55.0283 101.608 54.9842C101.568 54.9262 101.279 54.9041 100.563 54.9041C99.5842 54.9041 99.5737 54.9025 99.5691 54.7599C99.5665 54.6806 99.5685 53.7721 99.5734 52.7412L99.5824 50.8666H98.5181H97.4536L97.4347 49.8893L97.4158 48.912L96.3368 48.8944L95.2579 48.8767V47.853V46.8292H94.1978H93.1377L93.1188 45.8519L93.0999 44.8746L92.7971 44.8543C92.3844 44.8268 92.2217 44.8748 92.1408 45.0481C92.0875 45.1625 92.0079 45.1994 91.7812 45.2147C91.5261 45.232 91.49 45.2181 91.49 45.1025C91.49 44.9982 91.5337 44.9707 91.6996 44.9707C91.8296 44.9707 91.8921 44.9449 91.8643 44.9028C91.8397 44.8655 91.753 44.8398 91.6718 44.8459C91.5907 44.8518 91.4087 44.8535 91.2674 44.8496C91.0293 44.843 91.0105 44.8284 91.0105 44.6503C91.0105 44.5445 90.9766 44.458 90.935 44.458C90.8842 44.458 90.875 44.359 90.9067 44.1536C90.9325 43.9862 90.9681 43.1787 90.9856 42.3592L91.0175 40.8692H89.9521H88.8868V35.8704V30.8717H87.7927H86.6985L86.6394 30.6634C86.6069 30.5488 86.605 30.4396 86.6351 30.4207C86.6653 30.4017 86.6987 30.044 86.7094 29.6258L86.7288 28.8655L88.8525 28.8593L90.9762 28.853L90.9951 27.8436L91.014 26.8343H93.1359H95.2579V25.8742C95.2579 24.7336 95.1412 24.8307 96.4766 24.8599C97.1811 24.8753 97.388 24.8608 97.4152 24.7943C97.4645 24.6735 97.4587 23.0206 97.4085 22.8982C97.373 22.8118 97.2108 22.7968 96.3124 22.7968H95.2579V21.8355C95.2579 21.2374 95.232 20.8742 95.1894 20.8742C95.1517 20.8742 95.1184 20.9247 95.1154 20.9864C95.1111 21.0757 95.1021 21.079 95.0709 21.0024C95.0013 20.8314 94.8947 20.8122 94.0094 20.8111L93.1377 20.8102L93.1188 19.8328L93.0999 18.8555L92.0552 18.8378L91.0105 18.8202V17.8285V16.8368H89.9486H88.8868V15.8503C88.8868 15.0099 88.8707 14.8581 88.7784 14.825C88.7188 14.8035 87.7477 14.7861 86.6205 14.7861H84.5709V13.7927V12.7994H82.4129H80.255V11.806V10.8127H77.0695H73.8839V9.81936C73.8839 9.06866 73.863 8.82545 73.7983 8.82372C73.7512 8.8225 72.3195 8.8225 70.6168 8.82378C68.8759 8.82506 67.5045 8.8011 67.4833 8.76899C67.4625 8.73759 67.4376 8.29244 67.4278 7.77988L67.4101 6.84781L66.4298 6.84364C65.6649 6.84038 65.4603 6.85704 65.498 6.91952C65.5365 6.98348 65.5277 6.98342 65.454 6.91946C65.3842 6.85883 64.8312 6.83935 63.1833 6.83935H61.0048V5.87806V4.91676H58.8411H56.6773L56.6897 5.79795ZM65.9484 8.77008C66.1118 8.77091 66.5153 8.78604 66.8449 8.80353L67.4443 8.83545V9.82404V10.8127H70.6641H73.8839V11.806V12.7994H77.0695H80.255V13.8248V14.8501H82.4129H84.5709V15.8435V16.8368H86.7288H88.8868V17.8302V18.8235H89.9144H90.942V19.7475C90.942 20.2557 90.9607 20.7171 90.9836 20.7729C91.0189 20.8591 91.1782 20.8742 92.0454 20.8742H93.0657V21.8355V22.7968H94.1618H95.2579V23.8325V24.8682L93.4547 24.8272C92.4091 24.8034 91.6248 24.8105 91.5879 24.844C91.5529 24.8758 91.4405 24.847 91.3275 24.8585C91.1442 24.8772 91.014 24.7615 90.9951 24.9758C90.9833 25.108 90.9762 25.3379 91.0064 25.4244C90.9701 25.4244 90.942 25.7322 90.942 26.1293V26.8343H87.7564H84.5709V28.7889V30.7435H84.7422C84.8363 30.7435 84.9134 30.713 84.9134 30.6757C84.9134 30.6384 84.8778 30.6284 84.8343 30.6535C84.7853 30.6819 84.7738 30.6711 84.8042 30.6253C84.8871 30.4997 85.041 30.5389 85.0028 30.6759C84.9799 30.7579 84.8942 30.8092 84.7523 30.8258C84.6337 30.8398 84.791 30.8558 85.1018 30.8615C85.4402 30.8676 85.667 30.846 85.667 30.8076C85.667 30.7724 85.7749 30.7435 85.9068 30.7435C86.0386 30.7435 86.1465 30.7724 86.1465 30.8076C86.1465 30.8429 86.2707 30.8717 86.4223 30.8717H86.6985L86.6792 31.849L86.6603 32.8263L85.3245 32.8659C83.7068 32.9138 83.7981 32.9056 83.8589 32.9976C83.8862 33.039 83.8349 33.0246 83.7449 32.9656C83.5277 32.8233 81.9992 32.804 82.0567 32.9443C82.0761 32.9916 82.0611 33.0709 82.0233 33.1206C81.969 33.1921 81.9628 33.1875 81.9933 33.0987C82.0145 33.0371 82.0199 32.9866 82.0053 32.9866C81.9908 32.9866 81.925 32.9673 81.8593 32.9436C81.7732 32.9127 81.7548 32.9236 81.7936 32.9823C81.8293 33.0363 81.7925 33.0309 81.6849 32.9662C81.5519 32.8863 81.2245 32.8671 79.8838 32.8606C78.9825 32.8561 78.2195 32.8377 78.1882 32.8196C78.1569 32.8015 78.1313 32.3559 78.1313 31.8292V30.8717H79.1931H80.255V27.8613V24.8509L79.2103 24.8332L78.1656 24.8156L78.1467 23.8062L78.1278 22.7968H76.0059H73.8839V23.7833C73.8839 24.6237 73.8679 24.7756 73.7756 24.8087C73.716 24.8301 73.2381 24.8476 72.7137 24.8476H71.7602V23.8222V22.7968H72.8221H73.8839V21.8355V20.8742H71.726H69.568V19.8489V18.8235H67.4101H65.2522V17.8302V16.8368H64.2246H63.197V14.8181V12.7994H64.2246H65.2522V10.7807C65.2522 8.78539 65.2538 8.76194 65.3932 8.76194C65.4878 8.76194 65.5173 8.73554 65.4828 8.68183C65.4444 8.62191 65.4591 8.62274 65.5413 8.6851C65.6018 8.73092 65.785 8.76918 65.9484 8.77008ZM84.5709 21.8304V24.8372L87.6365 24.8585C90.5988 24.8791 90.9013 24.8637 90.962 24.6888C90.9745 24.6528 90.9717 23.7797 90.9558 22.7488L90.9268 20.8742H89.9068H88.8868V19.8878C88.8868 19.0473 88.8707 18.8955 88.7784 18.8624C88.7188 18.841 87.7477 18.8235 86.6205 18.8235H84.5709V21.8304ZM88.832 21.8356L88.8525 22.797L87.7736 22.7969L86.6946 22.7968V21.8355V20.8742H87.753H88.8114L88.832 21.8356ZM71.6917 25.8409V26.8343H69.568H67.4443V25.8409V24.8476H69.568H71.6917V25.8409ZM76.2594 37.0021C76.2346 37.0253 76.2526 37.0901 76.2994 37.1463C76.3745 37.2364 76.3705 37.2381 76.2653 37.1609C76.1581 37.0823 76.1566 36.9599 76.2629 36.9599C76.2857 36.9599 76.2842 36.9789 76.2594 37.0021ZM84.5709 43.8171V44.7784L85.6841 44.781C88.3555 44.7872 88.7126 44.7986 88.8001 44.8805C88.862 44.9384 88.8868 45.2278 88.8868 45.8954V46.8292H90.9745H93.0622L93.0811 47.8386L93.0999 48.8479L94.1789 48.8655L95.2579 48.8832V49.8749V50.8666H96.3197H97.3815V52.8854V54.9041H98.4776H99.5737L99.5801 55.1124C99.5836 55.2269 99.5811 55.4455 99.5746 55.5983C99.5665 55.787 99.6029 55.92 99.6881 56.0137C99.7914 56.1272 99.793 56.1366 99.6967 56.0671C99.5874 55.9881 99.5798 56.076 99.578 57.43L99.5761 58.8774H100.637H101.697V61.8895V64.9015H102.759H103.821V68.9069V72.9123H104.883H105.945V78.9027V84.8931L104.9 84.9108L103.855 84.9285L103.838 87.9143L103.82 90.9001L102.228 90.9422C101.352 90.9654 99.9188 90.9844 99.0428 90.9845L97.4501 90.9847V91.978V92.9713H82.4129H67.3758V91.978V90.9847H65.8456C65.0039 90.9847 63.5707 90.9656 62.6607 90.9424L61.0061 90.9001L60.9883 87.9143L60.9705 84.9285L59.9258 84.9108L58.8811 84.8931V78.9044V72.9157L59.9258 72.898L60.9705 72.8803L60.9882 68.8909L61.0058 64.9015H62.0598C62.9577 64.9015 63.12 64.8865 63.1554 64.8001C63.1783 64.7444 63.197 63.389 63.197 61.7881V58.8774H64.2246H65.2522V56.8907V54.9041H66.3483H67.4443V52.8854V50.8666H68.5062H69.568V49.8749V48.8832L70.6318 48.8655L71.6956 48.8479L71.7045 47.9187C71.7095 47.4076 71.7274 46.9534 71.7442 46.9093C71.767 46.85 72.0478 46.8292 72.8294 46.8292H73.8839V45.8679V44.9066H74.9384C75.8368 44.9066 75.9991 44.8916 76.0345 44.8052C76.0574 44.7495 76.0761 44.2881 76.0761 43.7798V42.8559H80.3235H84.5709V43.8171Z" fill="black"/>
<path d="M63 91H67.5V93H82H97V91H101.5V95H99.5V97H95V99H82.5H69.5V97H65.5V95H63V91Z" fill="#0A9BDE"/>
<path d="M61 85H63.5V87H66.5V89H77V87H84V85H86.5V83H95V81H106V85H104V91H97V93H67.5V91H61V85Z" fill="#75D4E6"/>
<path d="M59 81H70V83H86.5V85H84V87H77V89H66.5V87H63.5V85H59V81Z" fill="#96E4F1"/>
<path d="M65 55H73V53H90V57H93V70.5H91V80H90V83H59V72.5H61V65H63V59H65V55Z" fill="#CFF0E5"/>
<path d="M90 53H92.5V54.5H99.5V59H102V64.5H104V73H106V81H95V83H90V80H91V70.5H93V57H90V53Z" fill="#AAE3D0"/>
<rect x="74" y="45" width="2" height="2" fill="#23C7FC"/>
<rect x="89" y="45" width="2" height="2" fill="#0A9BDD"/>
<rect x="76" y="41" width="13" height="6" fill="#0A9BDE"/>
<path d="M69.5 49H71.5V47H74H76V45H80.5H86.5V47H89V48.5H89.5V51H90.5V53H73.5V55H67.5V51H69.5V49Z" fill="#96E4F1"/>
<rect x="76" y="43" width="9" height="2" fill="#23C7FC"/>
<rect x="86" y="45" width="3" height="2" fill="#75D4E6"/>
<path d="M89 47.0278L93 47.0278V49H95.5V51H97.5V54.5278L92.5 54.5V53H90.5V51L89.5 51V48.5H89V47.0278Z" fill="#75D4E6"/>
<rect x="78" y="35" width="9" height="4" fill="#13193F"/>
<rect x="78" y="35" width="7" height="2" fill="#2B3B92"/>
<path d="M63 12.5H65.5V15H72.5V17H78V19H84.5V25H91V27H84.5V31H87V33H78V31H80V25H78V23H73.5V21H69.5V19H65V17H63V12.5Z" fill="#C1ACA3"/>
<path d="M67.5 25H71.5V26.5H67.5V25Z" fill="#C1ACA3"/>
<path d="M72 23H73.5V24.5H72V23Z" fill="#C1ACA3"/>
<path d="M65 8.72723H67.5V10.5H74V12.5H80V14.5H84.5V17H89V19H78V17H72.5V15H65V8.72723Z" fill="#E9E4E1"/>
<rect x="89" y="19" width="2" height="2" fill="#E9E4E1"/>
<path d="M91 21H93V22.5H95.5V25H91V21Z" fill="#E9E4E1"/>
<path d="M80 27H82V28.5V31H80V27Z" fill="#E9E4E1"/>
<path d="M57 7H61V9H59V13H57V7Z" fill="#2B3B92"/>
<path d="M59 9H63V12.5H61V15H59V9Z" fill="#141941"/>
<rect x="48" y="37" width="2" height="2" fill="#2B3B92"/>
<rect x="52" y="35" width="2" height="2" fill="#141941"/>
<path d="M62 19H65V21H69V24H66H65V26H64V27H62V19Z" fill="#141941"/>
<rect x="60" y="26" width="2" height="4" fill="#141941"/>
<rect x="58" y="28" width="2" height="4" fill="#141941"/>
<rect x="56" y="32" width="2" height="2" fill="#141941"/>
<rect x="60" y="17" width="2" height="2" fill="#141941"/>
<rect x="54" y="33" width="2" height="2" fill="#141941"/>
<rect x="54" y="29" width="2" height="4" fill="#2B3B92"/>
<rect x="56" y="25" width="2" height="7" fill="#2B3B92"/>
<rect x="58" y="21" width="2" height="7" fill="#2B3B92"/>
<rect x="60" y="19" width="2" height="7" fill="#2B3B92"/>
<rect x="52" y="33" width="2" height="2" fill="#2B3B92"/>
<rect x="50" y="35" width="2" height="2" fill="#2B3B92"/>
<path d="M71.1982 76V73.6006H72.3994V71.2012H73.5977V68.8018H74.7988V66.4023H72.3994V67.6006H70V65.2012H77.1982V68.8018H76V71.2012H74.7988V73.6006H73.5977V76H71.1982ZM83.2012 74.8018V66.4023H80.8018V74.8018H83.2012ZM79.6006 76V74.8018H78.4023V66.4023H79.6006V65.2012H84.4023V66.4023H85.6006V74.8018H84.4023V76H79.6006ZM91.6035 76V73.6006H94.0029V76H91.6035ZM86.8047 67.6006V65.2012H89.2041V67.6006H86.8047ZM86.8047 76V73.6006H88.0029V71.2012H89.2041V68.8018H90.4023V66.4023H91.6035V65.2012H94.0029V66.4023H92.8047V68.8018H91.6035V71.2012H90.4023V73.6006H89.2041V76H86.8047Z" fill="black"/>
<rect x="45" y="9" width="9" height="2" fill="#B9E5D4"/>
<rect x="21.1033" y="46.9192" width="6.90072" height="2" transform="rotate(-89.6364 21.1033 46.9192)" fill="#B9E5D4"/>
<rect x="11" y="46.9006" width="6.90072" height="2" transform="rotate(-89.6364 11 46.9006)" fill="#B9E5D4"/>
<rect x="8.99411" y="54.8291" width="7.82926" height="2" transform="rotate(-89.6364 8.99411 54.8291)" fill="#B9E5D4"/>
<rect x="0.929733" y="75.9013" width="18.9017" height="2" transform="rotate(-89.6364 0.929733 75.9013)" fill="#B9E5D4"/>
<rect x="3" y="56.8291" width="7.82926" height="2" transform="rotate(-89.6364 3 56.8291)" fill="#B9E5D4"/>
<rect x="16" y="57.8291" width="7.82926" height="2" transform="rotate(-89.6364 16 57.8291)" fill="#B9E5D4"/>
<rect x="23" y="39.9006" width="4.33933" height="2" transform="rotate(-89.6364 23 39.9006)" fill="#B9E5D4"/>
<rect x="32" y="9" width="9" height="2" fill="#B9E5D4"/>
<rect x="41" y="11" width="4" height="2" fill="#B9E5D4"/>
<rect x="41" y="17" width="4" height="2" fill="#B9E5D4"/>
<rect x="38" y="19" width="3" height="2" fill="#B9E5D4"/>
<rect x="32" y="15" width="2" height="2" fill="#B9E5D4"/>
<rect x="29" y="24" width="2" height="2" fill="#B9E5D4"/>
<rect x="27" y="26" width="2" height="2" fill="#B9E5D4"/>
<rect x="5" y="40" width="2" height="2" fill="#B9E5D4"/>
<rect x="3" y="42" width="2" height="2" fill="#B9E5D4"/>
<rect x="31" y="22" width="2" height="2" fill="#B9E5D4"/>
<rect x="8" y="29" width="2" height="2" fill="#B9E5D4"/>
<rect x="10" y="27" width="2" height="2" fill="#B9E5D4"/>
<rect x="16" y="29" width="2" height="2" fill="#B9E5D4"/>
<rect x="14" y="31" width="2" height="2" fill="#B9E5D4"/>
<rect x="13" y="38" width="2" height="2" fill="#B9E5D4"/>
<rect x="18" y="27" width="2" height="2" fill="#B9E5D4"/>
<rect x="22" y="23" width="2" height="2" fill="#B9E5D4"/>
<rect x="20" y="25" width="2" height="2" fill="#B9E5D4"/>
<rect x="24" y="21" width="2" height="2" fill="#B9E5D4"/>
<rect x="28" y="17" width="2" height="2" fill="#B9E5D4"/>
<rect x="21" y="15" width="2" height="2" fill="#B9E5D4"/>
<rect x="37" y="13" width="4" height="2" fill="#B9E5D4"/>
<rect x="27" y="11" width="4" height="2" fill="#B9E5D4"/>
<rect x="8.04303" y="31.0215" width="4" height="2" transform="rotate(90.618 8.04303 31.0215)" fill="#B9E5D4"/>
<rect x="23" y="13" width="4" height="2" fill="#B9E5D4"/>
</svg>
