<svg width="62" height="101" viewBox="0 0 62 101" fill="none" xmlns="http://www.w3.org/2000/svg">
<path fill-rule="evenodd" clip-rule="evenodd" d="M10.6897 5.79795C10.6965 6.28263 10.6991 6.71522 10.6955 6.75924C10.6905 6.81961 10.4273 6.83935 9.62704 6.83935H8.56519V9.85455V12.8697L9.62546 12.8506L10.6858 12.8314L10.7044 13.8248L10.7231 14.8181L11.8021 14.8357L12.8811 14.8534V17.8302V20.8069L11.8021 20.8246L10.7231 20.8422L10.7085 22.6366C10.7005 23.6236 10.6927 24.5247 10.6913 24.6393L10.6889 24.8476H9.62704H8.56519V26.8326V28.8176L7.52047 28.8353L6.47575 28.853L6.4415 30.8397L6.40724 32.8263L5.39061 32.8375C4.8314 32.8436 4.35898 32.8626 4.34062 32.8797C4.32233 32.8969 4.30198 33.3388 4.29547 33.862L4.28355 34.813L3.22171 34.8451L2.15986 34.8771V35.8384V36.7997L1.09801 36.8317L0.0361694 36.8638L0.0180867 38.8665L0 40.8692H2.1589H4.31781V39.8758V38.8825H6.4415H8.56519V37.8908V36.8991L9.64416 36.8814L10.7231 36.8638L10.742 35.8865C10.7583 35.0453 10.7464 34.9091 10.6564 34.9091C10.5584 34.9091 10.5104 34.6811 10.5485 34.3965C10.5689 34.2439 10.4331 34.8886 10.6564 34.9091C10.6391 34.7951 10.8125 34.9234 10.6564 34.9091C10.6757 35.0366 11.035 34.955 10.9112 34.9183C10.6807 34.8499 10.5703 34.678 10.6564 34.9091L10.9112 34.9183L11.8962 34.9018L12.8811 34.8854V33.8719V32.8584H13.9429H15.0048V31.865V30.8717H16.1009H17.197V29.8624V28.853H21.4615H25.726L25.7448 27.8436L25.7637 26.8343H27.8839H30.0041L30.023 25.857L30.0419 24.8796H31.0695H32.0971L32.1149 27.8757L32.1327 30.8717H31.053L29.9734 30.8716L29.9917 33.5153C30.0097 36.1113 30.0397 36.5325 30.2223 36.7534C30.2935 36.8396 30.2799 36.8369 30.1606 36.7417C30.0765 36.6745 30.005 36.6313 30.0019 36.6456C29.9873 36.7111 30.0161 37.2839 30.0506 37.6168C30.0716 37.8195 30.0628 37.9853 30.0311 37.9852C29.9658 37.9852 29.9797 38.7719 30.0489 38.9983C30.0798 39.099 30.1294 39.1345 30.205 39.1096C30.266 39.0895 30.2426 39.1268 30.1531 39.1925C29.9985 39.3058 29.9908 39.3461 30.0025 39.9805C30.0092 40.3482 29.9944 40.6986 29.9696 40.7591C29.9297 40.8566 29.8033 40.8692 28.8699 40.8692H27.8154V42.8542V44.8392L26.7707 44.8569L25.726 44.8746L25.7071 45.8519L25.6882 46.8292H24.6281H23.568V47.853V48.8767L22.4891 48.8944L21.4101 48.912L21.3912 49.8893L21.3723 50.8666H20.3122H19.2522V52.8854V54.9041H18.1903H17.1285V56.8891V58.8742L16.065 58.8918L15.0014 58.9095L15.0018 61.7552C15.002 63.3203 14.9839 64.6685 14.9617 64.7512C14.9217 64.9005 14.9145 64.9015 13.9013 64.9015H12.8811V68.9053V72.909L11.8021 72.9267L10.7231 72.9444V78.9364V84.9285L11.8021 84.9461L12.8811 84.9638V87.9793V90.9948L13.9258 90.9763L14.9705 90.9579V92.9099C14.9705 94.136 14.996 94.88 15.039 94.9106C15.0767 94.9374 15.5488 94.9561 16.0883 94.9522C16.6277 94.9483 17.0856 94.9606 17.1058 94.9795C17.126 94.9985 17.138 95.4138 17.1324 95.9025C17.1269 96.3912 17.1394 96.8328 17.1602 96.8839C17.1916 96.9604 17.3782 96.9733 18.2252 96.9575L19.2522 96.9383V97.9365V98.9348L21.4272 98.9171L23.6023 98.8993L23.5809 99.63C23.5647 100.181 23.5815 100.374 23.6494 100.414C23.6996 100.444 23.7064 100.468 23.6649 100.468C23.624 100.469 23.5855 100.589 23.5794 100.735L23.5682 101L23.9497 100.963C24.3866 100.921 24.5323 101.024 24.5323 100.808C24.5323 100.725 24.5166 100.829 24.5166 100.829C24.6083 100.719 24.586 100.829 24.5166 100.829C24.4758 100.878 24.5582 100.913 24.7817 100.942C24.9601 100.965 30.5416 100.982 37.1851 100.981L49.2642 100.977L49.2439 99.9383L49.2236 98.8993L51.3987 98.9171L53.5737 98.9348V97.9356V96.9364L54.6185 96.9501L55.6632 96.9637L55.6974 95.954L55.7317 94.9444L56.6943 94.954C57.2237 94.9594 57.7015 94.9477 57.7561 94.9281C57.8401 94.898 57.8539 94.5913 57.8458 92.9385L57.8361 90.9847L58.7364 90.9775C59.2315 90.9736 59.7059 90.9758 59.7907 90.9822L59.9448 90.9938V87.9772V84.9605H60.9724H62V78.9364V72.9123H60.9724H59.9448V68.9069V64.9015H58.9246C58.0443 64.9015 57.8984 64.8872 57.8614 64.7969C57.8378 64.7395 57.8204 63.3913 57.8227 61.8009L57.8268 58.9095L56.7793 58.8774L55.7317 58.8454L55.6974 56.9548C55.6786 55.915 55.6383 55.0283 55.6078 54.9842C55.5676 54.9262 55.2793 54.9041 54.563 54.9041C53.5842 54.9041 53.5737 54.9025 53.5691 54.7599C53.5665 54.6806 53.5685 53.7721 53.5734 52.7412L53.5824 50.8666H52.5181H51.4536L51.4347 49.8893L51.4158 48.912L50.3368 48.8944L49.2579 48.8767V47.853V46.8292H48.1978H47.1377L47.1188 45.8519L47.0999 44.8746L46.7971 44.8543C46.3844 44.8268 46.2217 44.8748 46.1408 45.0481C46.0875 45.1625 46.0079 45.1994 45.7812 45.2147C45.5261 45.232 45.49 45.2181 45.49 45.1025C45.49 44.9982 45.5337 44.9707 45.6996 44.9707C45.8296 44.9707 45.8921 44.9449 45.8643 44.9028C45.8397 44.8655 45.753 44.8398 45.6718 44.8459C45.5907 44.8518 45.4087 44.8535 45.2674 44.8496C45.0293 44.843 45.0105 44.8284 45.0105 44.6503C45.0105 44.5445 44.9766 44.458 44.935 44.458C44.8842 44.458 44.875 44.359 44.9067 44.1536C44.9325 43.9862 44.9681 43.1787 44.9856 42.3592L45.0175 40.8692H43.9521H42.8868V35.8704V30.8717H41.7927H40.6985L40.6394 30.6634C40.6069 30.5488 40.605 30.4396 40.6351 30.4207C40.6653 30.4017 40.6987 30.044 40.7094 29.6258L40.7288 28.8655L42.8525 28.8593L44.9762 28.853L44.9951 27.8436L45.014 26.8343H47.1359H49.2579V25.8742C49.2579 24.7336 49.1412 24.8307 50.4766 24.8599C51.1811 24.8753 51.388 24.8608 51.4152 24.7943C51.4645 24.6735 51.4587 23.0206 51.4085 22.8982C51.373 22.8118 51.2108 22.7968 50.3124 22.7968H49.2579V21.8355C49.2579 21.2374 49.232 20.8742 49.1894 20.8742C49.1517 20.8742 49.1184 20.9247 49.1154 20.9864C49.1111 21.0757 49.1021 21.079 49.0709 21.0024C49.0013 20.8314 48.8947 20.8122 48.0094 20.8111L47.1377 20.8102L47.1188 19.8328L47.0999 18.8555L46.0552 18.8378L45.0105 18.8202V17.8285V16.8368H43.9486H42.8868V15.8503C42.8868 15.0099 42.8707 14.8581 42.7784 14.825C42.7188 14.8035 41.7477 14.7861 40.6205 14.7861H38.5709V13.7927V12.7994H36.4129H34.255V11.806V10.8127H31.0695H27.8839V9.81936C27.8839 9.06866 27.863 8.82545 27.7983 8.82372C27.7512 8.8225 26.3195 8.8225 24.6168 8.82378C22.8759 8.82506 21.5045 8.8011 21.4833 8.76899C21.4625 8.73759 21.4376 8.29244 21.4278 7.77988L21.4101 6.84781L20.4298 6.84364C19.6649 6.84038 19.4603 6.85704 19.498 6.91952C19.5365 6.98348 19.5277 6.98342 19.454 6.91946C19.3842 6.85883 18.8312 6.83935 17.1833 6.83935H15.0048V5.87806V4.91676H12.8411H10.6773L10.6897 5.79795ZM19.9484 8.77008C20.1118 8.77091 20.5153 8.78604 20.8449 8.80353L21.4443 8.83545V9.82404V10.8127H24.6641H27.8839V11.806V12.7994H31.0695H34.255V13.8248V14.8501H36.4129H38.5709V15.8435V16.8368H40.7288H42.8868V17.8302V18.8235H43.9144H44.942V19.7475C44.942 20.2557 44.9607 20.7171 44.9836 20.7729C45.0189 20.8591 45.1782 20.8742 46.0454 20.8742H47.0657V21.8355V22.7968H48.1618H49.2579V23.8325V24.8682L47.4547 24.8272C46.4091 24.8034 45.6248 24.8105 45.5879 24.844C45.5529 24.8758 45.4405 24.847 45.3275 24.8585C45.1442 24.8772 45.014 24.7615 44.9951 24.9758C44.9833 25.108 44.9762 25.3379 45.0064 25.4244C44.9701 25.4244 44.942 25.7322 44.942 26.1293V26.8343H41.7564H38.5709V28.7889V30.7435H38.7422C38.8363 30.7435 38.9134 30.713 38.9134 30.6757C38.9134 30.6384 38.8778 30.6284 38.8343 30.6535C38.7853 30.6819 38.7738 30.6711 38.8042 30.6253C38.8871 30.4997 39.041 30.5389 39.0028 30.6759C38.9799 30.7579 38.8942 30.8092 38.7523 30.8258C38.6337 30.8398 38.791 30.8558 39.1018 30.8615C39.4402 30.8676 39.667 30.846 39.667 30.8076C39.667 30.7724 39.7749 30.7435 39.9068 30.7435C40.0386 30.7435 40.1465 30.7724 40.1465 30.8076C40.1465 30.8429 40.2707 30.8717 40.4223 30.8717H40.6985L40.6792 31.849L40.6603 32.8263L39.3245 32.8659C37.7068 32.9138 37.7981 32.9056 37.8589 32.9976C37.8862 33.039 37.8349 33.0246 37.7449 32.9656C37.5277 32.8233 35.9992 32.804 36.0567 32.9443C36.0761 32.9916 36.0611 33.0709 36.0233 33.1206C35.969 33.1921 35.9628 33.1875 35.9933 33.0987C36.0145 33.0371 36.0199 32.9866 36.0053 32.9866C35.9908 32.9866 35.925 32.9673 35.8593 32.9436C35.7732 32.9127 35.7548 32.9236 35.7936 32.9823C35.8293 33.0363 35.7925 33.0309 35.6849 32.9662C35.5519 32.8863 35.2245 32.8671 33.8838 32.8606C32.9825 32.8561 32.2195 32.8377 32.1882 32.8196C32.1569 32.8015 32.1313 32.3559 32.1313 31.8292V30.8717H33.1931H34.255V27.8613V24.8509L33.2103 24.8332L32.1656 24.8156L32.1467 23.8062L32.1278 22.7968H30.0059H27.8839V23.7833C27.8839 24.6237 27.8679 24.7756 27.7756 24.8087C27.716 24.8301 27.2381 24.8476 26.7137 24.8476H25.7602V23.8222V22.7968H26.8221H27.8839V21.8355V20.8742H25.726H23.568V19.8489V18.8235H21.4101H19.2522V17.8302V16.8368H18.2246H17.197V14.8181V12.7994H18.2246H19.2522V10.7807C19.2522 8.78539 19.2538 8.76194 19.3932 8.76194C19.4878 8.76194 19.5173 8.73554 19.4828 8.68183C19.4444 8.62191 19.4591 8.62274 19.5413 8.6851C19.6018 8.73092 19.785 8.76918 19.9484 8.77008ZM38.5709 21.8304V24.8372L41.6365 24.8585C44.5988 24.8791 44.9013 24.8637 44.962 24.6888C44.9745 24.6528 44.9717 23.7797 44.9558 22.7488L44.9268 20.8742H43.9068H42.8868V19.8878C42.8868 19.0473 42.8707 18.8955 42.7784 18.8624C42.7188 18.841 41.7477 18.8235 40.6205 18.8235H38.5709V21.8304ZM42.832 21.8356L42.8525 22.797L41.7736 22.7969L40.6946 22.7968V21.8355V20.8742H41.753H42.8114L42.832 21.8356ZM25.6917 25.8409V26.8343H23.568H21.4443V25.8409V24.8476H23.568H25.6917V25.8409ZM30.2594 37.0021C30.2346 37.0253 30.2526 37.0901 30.2994 37.1463C30.3745 37.2364 30.3705 37.2381 30.2653 37.1609C30.1581 37.0823 30.1566 36.9599 30.2629 36.9599C30.2857 36.9599 30.2842 36.9789 30.2594 37.0021ZM38.5709 43.8171V44.7784L39.6841 44.781C42.3555 44.7872 42.7126 44.7986 42.8001 44.8805C42.862 44.9384 42.8868 45.2278 42.8868 45.8954V46.8292H44.9745H47.0622L47.0811 47.8386L47.0999 48.8479L48.1789 48.8655L49.2579 48.8832V49.8749V50.8666H50.3197H51.3815V52.8854V54.9041H52.4776H53.5737L53.5801 55.1124C53.5836 55.2269 53.5811 55.4455 53.5746 55.5983C53.5665 55.787 53.6029 55.92 53.6881 56.0137C53.7914 56.1272 53.793 56.1366 53.6967 56.0671C53.5874 55.9881 53.5798 56.076 53.578 57.43L53.5761 58.8774H54.6368H55.6974V61.8895V64.9015H56.7593H57.8211V68.9069V72.9123H58.883H59.9448V78.9027V84.8931L58.9001 84.9108L57.8554 84.9285L57.8376 87.9143L57.8198 90.9001L56.2277 90.9422C55.352 90.9654 53.9188 90.9844 53.0428 90.9845L51.4501 90.9847V91.978V92.9713H36.4129H21.3758V91.978V90.9847H19.8456C19.0039 90.9847 17.5707 90.9656 16.6607 90.9424L15.0061 90.9001L14.9883 87.9143L14.9705 84.9285L13.9258 84.9108L12.8811 84.8931V78.9044V72.9157L13.9258 72.898L14.9705 72.8803L14.9882 68.8909L15.0058 64.9015H16.0598C16.9577 64.9015 17.12 64.8865 17.1554 64.8001C17.1783 64.7444 17.197 63.389 17.197 61.7881V58.8774H18.2246H19.2522V56.8907V54.9041H20.3483H21.4443V52.8854V50.8666H22.5062H23.568V49.8749V48.8832L24.6318 48.8655L25.6956 48.8479L25.7045 47.9187C25.7095 47.4076 25.7274 46.9534 25.7442 46.9093C25.767 46.85 26.0478 46.8292 26.8294 46.8292H27.8839V45.8679V44.9066H28.9384C29.8368 44.9066 29.9991 44.8916 30.0345 44.8052C30.0574 44.7495 30.0761 44.2881 30.0761 43.7798V42.8559H34.3235H38.5709V43.8171Z" fill="black"/>
<path d="M17 91H21.5V93H36H51V91H55.5V95H53.5V97H49V99H36.5H23.5V97H19.5V95H17V91Z" fill="#0A9BDE"/>
<path d="M15 85H17.5V87H20.5V89H31V87H38V85H40.5V83H49V81H60V85H58V91H51V93H21.5V91H15V85Z" fill="#75D4E6"/>
<path d="M13 81H24V83H40.5V85H38V87H31V89H20.5V87H17.5V85H13V81Z" fill="#96E4F1"/>
<path d="M19 55H27V53H44V57H47V70.5H45V80H44V83H13V72.5H15V65H17V59H19V55Z" fill="#CFF0E5"/>
<path d="M44 53H46.5V54.5H53.5V59H56V64.5H58V73H60V81H49V83H44V80H45V70.5H47V57H44V53Z" fill="#AAE3D0"/>
<rect x="28" y="45" width="2" height="2" fill="#23C7FC"/>
<rect x="43" y="45" width="2" height="2" fill="#0A9BDD"/>
<rect x="30" y="41" width="13" height="6" fill="#0A9BDE"/>
<path d="M23.5 49H25.5V47H28H30V45H34.5H40.5V47H43V48.5H43.5V51H44.5V53H27.5V55H21.5V51H23.5V49Z" fill="#96E4F1"/>
<rect x="30" y="43" width="9" height="2" fill="#23C7FC"/>
<rect x="40" y="45" width="3" height="2" fill="#75D4E6"/>
<path d="M43 47.0278L47 47.0278V49H49.5V51H51.5V54.5278L46.5 54.5001V53.0001H44.5V51.0001L43.5 51V48.5001H43V47.0278Z" fill="#75D4E6"/>
<rect x="32" y="35" width="9" height="4" fill="#13193F"/>
<rect x="32" y="35" width="7" height="2" fill="#2B3B92"/>
<path d="M17 12.5H19.5V15H26.5V17H32V19H38.5V25H45V27H38.5V31H41V33H32V31H34V25H32V23H27.5V21H23.5V19H19V17H17V12.5Z" fill="#C1ACA3"/>
<path d="M21.5 25H25.5V26.5H21.5V25Z" fill="#C1ACA3"/>
<path d="M26 23H27.5V24.5H26V23Z" fill="#C1ACA3"/>
<path d="M19 8.72729H21.5V10.5001H28V12.5001H34V14.5001H38.5V17.0001H43V19.0001H32V17.0001H26.5V15.0001H19V8.72729Z" fill="#E9E4E1"/>
<rect x="43" y="19" width="2" height="2" fill="#E9E4E1"/>
<path d="M45 21H47V22.5H49.5V25H45V21Z" fill="#E9E4E1"/>
<path d="M34 27H36V28.5V31H34V27Z" fill="#E9E4E1"/>
<path d="M11 7H15V9H13V13H11V7Z" fill="#2B3B92"/>
<path d="M13 9H17V12.5H15V15H13V9Z" fill="#141941"/>
<rect x="2" y="37" width="2" height="2" fill="#2B3B92"/>
<rect x="6" y="35" width="2" height="2" fill="#141941"/>
<path d="M16 19H19V21H23V24H20H19V26H18V27H16V19Z" fill="#141941"/>
<rect x="14" y="26" width="2" height="4" fill="#141941"/>
<rect x="12" y="28" width="2" height="4" fill="#141941"/>
<rect x="10" y="32" width="2" height="2" fill="#141941"/>
<rect x="14" y="17" width="2" height="2" fill="#141941"/>
<rect x="8" y="33" width="2" height="2" fill="#141941"/>
<rect x="8" y="29" width="2" height="4" fill="#2B3B92"/>
<rect x="10" y="25" width="2" height="7" fill="#2B3B92"/>
<rect x="12" y="21" width="2" height="7" fill="#2B3B92"/>
<rect x="14" y="19" width="2" height="7" fill="#2B3B92"/>
<rect x="6" y="33" width="2" height="2" fill="#2B3B92"/>
<rect x="4" y="35" width="2" height="2" fill="#2B3B92"/>
<path d="M25.1982 76V73.6006H26.3994V71.2012H27.5977V68.8018H28.7988V66.4023H26.3994V67.6006H24V65.2012H31.1982V68.8018H30V71.2012H28.7988V73.6006H27.5977V76H25.1982ZM37.2012 74.8018V66.4023H34.8018V74.8018H37.2012ZM33.6006 76V74.8018H32.4023V66.4023H33.6006V65.2012H38.4023V66.4023H39.6006V74.8018H38.4023V76H33.6006ZM45.6035 76V73.6006H48.0029V76H45.6035ZM40.8047 67.6006V65.2012H43.2041V67.6006H40.8047ZM40.8047 76V73.6006H42.0029V71.2012H43.2041V68.8018H44.4023V66.4023H45.6035V65.2012H48.0029V66.4023H46.8047V68.8018H45.6035V71.2012H44.4023V73.6006H43.2041V76H40.8047Z" fill="black"/>
</svg>
