<svg width="100" height="100" viewBox="0 0 100 100" fill="none" xmlns="http://www.w3.org/2000/svg">
<path fill-rule="evenodd" clip-rule="evenodd" d="M39.9586 1.03734V2.07469H36.9565H33.9545V2.87448V3.67448L32.5569 3.80664C31.7882 3.87946 30.4373 3.93963 29.5549 3.94046L27.9503 3.94191V4.97925V6.0166H25.9834H24.0166V6.95021V7.88382H23.0849H22.1532V8.92116V9.95851H20.0828H18.0124V10.9959V12.0332H16.9772H15.942V12.955V13.8766L15.0621 13.9405L14.1822 14.0041L14.119 14.9896L14.0559 15.9751H13.0321H12.0083V17.0124V18.0498H11.0766H10.1449V20.0207V21.9917H9.10973H8.07453V22.9139V23.8361L7.0911 23.8994L6.10766 23.9627L6.04845 25.9855L5.98923 28.0083H4.96149H3.93375V30.901V33.7936L3.05383 33.8575L2.17391 33.9212L2.11656 36.9813L2.05942 40.0415H1.02961H0V50.1037V60.166H1.0352H2.07039V63.1743V66.1826H2.99648H3.92236L3.97992 69.139L4.03727 72.0954L5.0207 72.1587L6.00414 72.222V74.1815V76.1411H7.03934H8.07453V77.0747V78.0083H9.10973H10.1449V79.9674V81.9264L11.0248 81.9902L11.9048 82.0539L12.0083 83.0913L12.1118 84.1286L13.0952 84.1919L14.0787 84.2552V85.1774V86.0996H14.999H15.9193L15.9824 87.0851L16.0455 88.0705L17.029 88.1338L18.0124 88.1971V89.1193V90.0415H20.0828H22.1532V91.0788V92.1162H23.0849H24.0166V93.0498V93.9834H25.9834H27.9503V95.0207V96.0581H29.3683C30.1482 96.0581 31.4944 96.118 32.36 96.1913L33.9335 96.3247L33.9957 97.1768L34.058 98.029L37.0083 98.0865L39.9586 98.1442V99.072V100H50H60.0414V99.0664V98.1328L62.5776 98.1313C63.9727 98.1305 65.7381 98.0707 66.5008 97.9986L67.888 97.8672L67.9501 97.0145L68.0124 96.1618L70.0311 96.1025L72.0497 96.0432V95.0133V93.9834H74.0166H75.9834V93.0498V92.1162H77.0186H78.0538V91.0788V90.0415H80.0207H81.9876V89.1079V88.1743H83.0228H84.058V87.1369V86.0996H84.9896H85.9213V85.166V84.2324H86.9458H87.97L88.0327 83.1432L88.0952 82.0539L89.0787 81.9907L90.0621 81.9274V79.9678V78.0083H91.0973H92.1325V77.0747V76.1411H93.0642H93.9959V74.1701V72.1992H95.0311H96.0663V69.1909V66.1826H96.9979H97.9296V63.1743V60.166H98.9648H100V50.1151V40.0643L99.0166 40.001L98.0331 39.9378L97.9758 36.8776L97.9186 33.8174H96.9923H96.0663V30.9129V28.0083H95.0311H93.9959V25.9336V23.8589H93.0642H92.1325V22.9253V21.9917H91.0973H90.0621V20.0207V18.0498H89.0269H87.9917V17.0124V15.9751H86.9565H85.9213V14.9378V13.9004H84.9896H84.058V12.9782V12.056L83.0745 11.9927L82.0911 11.9295L82.028 10.944L81.9648 9.95851H80.0093H78.0538V8.92116V7.88382H77.0186H75.9834V6.95021V6.0166H74.0166H72.0497V4.98672V3.95685L70.0311 3.89751L68.0124 3.83817L67.9491 2.961L67.8855 2.08382L64.0153 2.02739L60.1449 1.97095L60.0818 0.985477L60.0186 0H49.9886H39.9586V1.03734ZM56.1077 3.0083V3.94191H60.1449H64.1822V4.84606V5.75L65.4549 5.8834C66.1547 5.95664 67.459 6.0166 68.3534 6.0166H69.9793V6.95021V7.88382H71.9462H73.913V8.92116V9.95851H75.8685H77.824L77.8872 10.944L77.9503 11.9295L79.0373 11.9921L80.1242 12.055V12.9658V13.8766L81.0041 13.9405L81.8841 14.0041L81.9472 14.9896L82.0104 15.9751H83.0342H84.058V17.0124V18.0498H84.9896H85.9213V18.9834V19.917H86.9319H87.9424L88.089 21.877L88.2358 23.8369L89.0971 23.8998L89.9586 23.9627L90.0213 24.9371L90.0839 25.9118L91.0565 25.9745L92.029 26.0373L92.0882 28.0602L92.1474 30.083H93.0716H93.9959V32.9876V35.8921H95.0311H96.0663V39.9378V43.9834H96.9979H97.9296V50V56.0166H96.9979H96.0663V60.0622V64.1079H95.0311H93.9959V67.1162V70.1245H93.0642H92.1325V72.0954V74.0664H91.1087H90.0849L90.0217 75.0519L89.9586 76.0373L88.9752 76.1006L87.9917 76.1639V78.1234V80.083H86.9565H85.9213V81.0166V81.9502H85.0004H84.0797L84.017 83.0394L83.9545 84.1286L82.971 84.1919L81.9876 84.2552V85.1774V86.0996H81.0559H80.1242V87.1369V88.1743H78.0538H75.9834V89.1079V90.0415H74.9482H73.913V91.0788V92.1162H71.9462H69.9793V93.0498V93.9834H67.0807H64.1822V95.0207V96.0581L59.5756 96.0595C57.0418 96.0604 54.3447 96.1201 53.582 96.1923L52.1948 96.3237L52.1327 97.1764L52.0704 98.029L50.0518 98.0884L48.0331 98.1477V97.2367V96.3255L46.6356 96.1934C45.8669 96.1205 43.1652 96.0604 40.6315 96.0595L36.0248 96.0581V95.0207V93.9834H33.0228H30.0207V93.0498V92.1162H28.0538H26.087V91.0788V90.0415H25.0518H24.0166V89.1079V88.1743H22.0497H20.0828V87.1369V86.0996H19.0476H18.0124V85.1774V84.2552L17.029 84.1919L16.0455 84.1286L15.983 83.0394L15.9203 81.9502H14.9996H14.0787V81.0166V80.083H13.0435H12.0083V78.112V76.1411H11.0766H10.1449V75.1037V74.0664H9.10973H8.07453V72.0954V70.1245H7.17288H6.27101L6.13913 68.7241C6.06646 67.9539 6.00642 66.6 6.00559 65.7158L6.00414 64.1079H4.96894H3.93375V59.1405V54.1732L3.05383 54.1093L2.17391 54.0456L2.1176 50.0519L2.06149 46.0581H2.994H3.92629L3.98178 41.027L4.03727 35.9958L5.0207 35.9326L6.00414 35.8693V32.9761V30.083H7.03934H8.07453V28.0083V25.9336H9.10973H10.1449V24.8963V23.8589H11.0766H12.0083V21.888V19.917H13.0435H14.0787V18.9834V18.0498H15.0104H15.942V17.0124V15.9751H16.9658H17.9896L18.0528 14.9896L18.1159 14.0041L19.0994 13.9409L20.0828 13.8776V12.9633V12.0488L21.9979 11.9892L23.913 11.9295L23.9762 10.944L24.0393 9.95851H25.0631H26.087V8.92116V7.88382H28.0538H30.0207V6.95021V6.0166H32.9193H35.8178V4.97925V3.94191H39.8551H43.8923V3.0083V2.07469H50H56.1077V3.0083ZM54.0373 24.8963V25.9336H55.9928H57.9482L58.0114 26.9191L58.0745 27.9046H59.0062H59.9379L60.0414 28.9419L60.1449 29.9793L61.1315 30.0425L62.118 30.106L62.0632 36.0591L62.0083 42.0124L61.0248 42.0757L60.0414 42.139V43.0612V43.9834H59.129H58.2168L58.0692 45.9544L57.9217 47.9253H55.9795H54.0373V48.9627V50H53.1056H52.1739V51.971V53.9419H51.1387H50.1035V56.0166V58.0913H51.1501H52.1967L52.1335 59.0768L52.0704 60.0622H48.0331H43.9959L43.9404 55.0311L43.8849 50H44.9238H45.9627V48.9627V47.9253H46.9979H48.0331V46.9917V46.0581H49.0683H50.1035V45.0207V43.9834H51.1387H52.1739V43.0498V42.1162H53.1056H54.0373V40.0415V37.9668H55.0725H56.1077V36.9295V35.8921H55.0725H54.0373V33.9212V31.9502H52.0704H50.1035V31.0166V30.083H46.9979H43.8923V31.0166V31.9502H41.9255H39.9586V32.9876V34.0249H39.0269H38.0952V29.9793V25.9336H40.9938H43.8923V25.0346C43.8923 24.54 43.9545 24.0732 44.0304 23.9973C44.1062 23.9212 46.3888 23.8589 49.1029 23.8589H54.0373V24.8963ZM52.1335 67.0643L52.1967 68.0498H53.117H54.0373V71.0581V74.0664H52.0704H50.1035V75.1037V76.1411H48.0331H45.9627V75.1037V74.0664H44.9219H43.881L43.9385 71.11L43.9959 68.1535L44.9793 68.0902L45.9627 68.027V67.1394C45.9627 66.6512 46.0273 66.1871 46.1062 66.1079C46.1851 66.0288 47.5594 65.99 49.16 66.0216L52.0704 66.0788L52.1335 67.0643Z" fill="white"/>
</svg>
