<svg width="286" height="95" viewBox="0 0 286 95" fill="none" xmlns="http://www.w3.org/2000/svg">
<path d="M64 0H104V6H110V12H116V6H216V12H228V18H234V24H240V30H251V36H262V42H268V48H274V54H280V60H286V83H280V89H274V95H105V89H99V95H58V83H64V77H17V71H11V65H6V59H0V30H6V24H12V18H46V12H58V6H64V0Z" fill="#9ACA3C"/>
<rect x="64" width="40" height="6" fill="#1F1F1D"/>
<rect x="116" y="6" width="100" height="6" fill="#1F1F1D"/>
<rect x="58" y="6" width="6" height="6" fill="#1F1F1D"/>
<rect x="11" y="65" width="6" height="6" fill="#1F1F1D"/>
<rect x="29" y="65" width="6" height="6" fill="#4E8328"/>
<rect x="61" y="65" width="6" height="6" fill="#4E8328"/>
<rect x="23" y="65" width="6" height="6" fill="#E5E5E5"/>
<rect x="35" y="53" width="6" height="6" fill="#E5E5E5"/>
<rect x="67" y="54" width="6" height="6" fill="#E5E5E5"/>
<rect x="17" y="65" width="6" height="6" fill="#68A238"/>
<rect x="55" y="65" width="6" height="6" fill="#E5E5E5"/>
<rect x="12" y="36" width="6" height="6" fill="#1F1F1D"/>
<rect x="40" y="24" width="6" height="6" fill="#71AE43"/>
<rect x="30" y="36" width="6" height="6" fill="#1F1F1D"/>
<rect x="24" y="24" width="6" height="6" fill="#71AE43"/>
<rect x="12" y="24" width="6" height="6" fill="#CADC52"/>
<rect x="64" y="6" width="40" height="6" fill="#CADC52"/>
<rect x="59" y="31" width="12" height="6" fill="#CADC52"/>
<rect x="82" y="31" width="12" height="6" fill="#CADC52"/>
<rect x="58" y="12" width="6" height="6" fill="#CADC52"/>
<rect x="128" y="12" width="10" height="6" fill="#CADC52"/>
<rect x="160" y="12" width="10" height="6" fill="#CADC52"/>
<rect x="191" y="12" width="25" height="6" fill="#CADC52"/>
<rect x="176" y="12" width="10" height="6" fill="#CADC52"/>
<rect x="144" y="12" width="10" height="6" fill="#CADC52"/>
<rect x="116" y="12" width="6" height="6" fill="#CADC52"/>
<rect x="222" y="18" width="6" height="6" fill="#CADC52"/>
<rect x="228" y="24" width="6" height="6" fill="#CADC52"/>
<rect x="234" y="30" width="6" height="6" fill="#CADC52"/>
<rect x="256" y="42" width="6" height="6" fill="#CADC52"/>
<rect x="274" y="60" width="6" height="6" fill="#CADC52"/>
<rect x="252" y="65" width="6" height="6" fill="#C9DD50"/>
<rect x="246" y="71" width="6" height="6" fill="#C9DD50"/>
<rect x="206" y="83" width="6" height="6" fill="#FED308"/>
<rect x="218" y="83" width="10" height="6" fill="#FED308"/>
<rect x="234" y="83" width="10" height="6" fill="#FED308"/>
<rect x="250" y="83" width="12" height="6" fill="#FED308"/>
<rect x="212" y="83" width="6" height="6" fill="#DAA112"/>
<rect x="228" y="83" width="6" height="6" fill="#DAA112"/>
<rect x="244" y="83" width="6" height="6" fill="#DAA112"/>
<rect x="262" y="83" width="6" height="6" fill="#DAA112"/>
<rect x="268" y="83" width="6" height="6" fill="#FED308"/>
<rect x="274" y="77" width="6" height="6" fill="#FED308"/>
<rect x="262" y="48" width="6" height="6" fill="#CADC52"/>
<rect x="268" y="54" width="6" height="6" fill="#CADC52"/>
<rect x="245" y="36" width="6" height="6" fill="#CADC52"/>
<rect x="46" y="18" width="6" height="6" fill="#CADC52"/>
<rect x="76" y="47" width="6" height="6" fill="#CADC52"/>
<rect x="82" y="53" width="6" height="6" fill="#CADC52"/>
<rect x="129" y="71" width="6" height="6" fill="#CADC52"/>
<rect x="111" y="77" width="6" height="6" fill="#CADC52"/>
<rect x="6" y="30" width="6" height="6" fill="#C8DD4D"/>
<rect x="70" y="77" width="6" height="6" fill="#95CA3B"/>
<rect x="64" y="77" width="6" height="6" fill="#1F1F1D"/>
<rect x="64" y="83" width="6" height="6" fill="#67A135"/>
<rect x="76" y="83" width="12" height="6" fill="#67A135"/>
<rect x="88" y="83" width="6" height="6" fill="#3A7D2E"/>
<rect x="58" y="83" width="6" height="6" fill="#1F1F1D"/>
<rect x="70" y="83" width="6" height="6" fill="#1F1F1D"/>
<rect x="105" y="77" width="6" height="6" fill="#1F1F1D"/>
<rect x="111" y="83" width="6" height="6" fill="#1F1F1D"/>
<rect x="123" y="83" width="6" height="6" fill="#1F1F1D"/>
<rect x="147" y="83" width="6" height="6" fill="#1F1F1D"/>
<rect x="176" y="83" width="6" height="6" fill="#1F1F1D"/>
<rect x="200" y="83" width="6" height="6" fill="#1F1F1D"/>
<rect x="206" y="77" width="6" height="6" fill="#1F1F1D"/>
<rect x="240" y="71" width="6" height="6" fill="#1F1F1D"/>
<rect x="258" y="71" width="6" height="6" fill="#1F1F1D"/>
<rect x="262" y="60" width="6" height="6" fill="#1F1F1D"/>
<rect x="250" y="48" width="6" height="6" fill="#1F1F1D"/>
<rect x="239" y="42" width="6" height="6" fill="#1F1F1D"/>
<rect x="224" y="47" width="6" height="6" fill="#1F1F1D"/>
<rect x="188" y="83" width="6" height="6" fill="#1F1F1D"/>
<rect x="182" y="77" width="6" height="6" fill="#1F1F1D"/>
<rect x="188" y="71" width="6" height="6" fill="#1F1F1D"/>
<rect x="188" y="47" width="6" height="6" fill="#1F1F1D"/>
<rect x="117" y="83" width="6" height="6" fill="#6AA138"/>
<rect x="182" y="83" width="6" height="6" fill="#6AA138"/>
<rect x="194" y="83" width="6" height="6" fill="#6AA138"/>
<rect x="200" y="65" width="6" height="6" fill="#6AA138"/>
<rect x="206" y="53" width="6" height="6" fill="#6AA138"/>
<rect x="167" y="54" width="6" height="6" fill="#6AA138"/>
<rect x="133" y="48" width="6" height="6" fill="#6AA138"/>
<rect x="147" y="77" width="6" height="6" fill="#6AA138"/>
<rect x="105" y="83" width="6" height="6" fill="#6AA138"/>
<rect x="129" y="65" width="6" height="6" fill="#1F1F1D"/>
<rect x="147" y="60" width="6" height="6" fill="#1F1F1D"/>
<rect x="274" y="83" width="6" height="6" fill="#1F1F1D"/>
<rect x="6" y="24" width="6" height="6" fill="#1F1F1D"/>
<rect x="104" y="6" width="6" height="6" fill="#1F1F1D"/>
<rect x="110" y="12" width="6" height="6" fill="#1F1F1D"/>
<rect x="116" y="18" width="6" height="6" fill="#128834"/>
<rect x="126" y="24" width="6" height="6" fill="#1F1F1D"/>
<rect x="120" y="30" width="6" height="6" fill="#128834"/>
<rect x="132" y="18" width="6" height="6" fill="#71AE41"/>
<rect x="117" y="59" width="6" height="6" fill="#6AA13A"/>
<rect x="111" y="59" width="6" height="6" fill="#6AA13A"/>
<rect x="117" y="54" width="6" height="6" fill="#6AA13A"/>
<rect x="99" y="53" width="6" height="6" fill="#6AA13A"/>
<path d="M89.5 31H95.5V37H89.5V31Z" fill="#0A9BDD"/>
<path d="M58 31H64V37H58V31Z" fill="#0A9BDD"/>
<rect x="105" y="31" width="6" height="6" fill="#6AA13A"/>
<rect x="105" y="31" width="6" height="6" fill="#6AA13A"/>
<rect x="99" y="18" width="6" height="6" fill="#6AA13A"/>
<rect x="173" y="24" width="6" height="6" fill="#1F1F1D"/>
<rect x="167" y="30" width="6" height="6" fill="#128834"/>
<rect x="179" y="18" width="6" height="6" fill="#71AE41"/>
<rect x="193" y="24" width="6" height="6" fill="#1F1F1D"/>
<rect x="187" y="30" width="6" height="6" fill="#128834"/>
<rect x="216" y="24" width="6" height="6" fill="#1F1F1D"/>
<rect x="210" y="30" width="6" height="6" fill="#128834"/>
<rect x="199" y="18" width="6" height="6" fill="#71AE41"/>
<rect x="158" y="24" width="6" height="6" fill="#1F1F1D"/>
<rect x="152" y="30" width="6" height="6" fill="#128834"/>
<rect x="164" y="18" width="6" height="6" fill="#71AE41"/>
<rect x="142" y="24" width="6" height="6" fill="#1F1F1D"/>
<rect x="136" y="30" width="6" height="6" fill="#128834"/>
<rect x="148" y="18" width="6" height="6" fill="#71AE41"/>
<rect x="228" y="18" width="6" height="6" fill="#1F1F1D"/>
<rect x="234" y="24" width="6" height="6" fill="#1F1F1D"/>
<rect x="274" y="54" width="6" height="6" fill="#1F1F1D"/>
<rect x="262" y="42" width="6" height="6" fill="#1F1F1D"/>
<rect x="268" y="48" width="6" height="6" fill="#1F1F1D"/>
<rect x="185" y="12" width="6" height="6" fill="#1F1F1D"/>
<rect x="170" y="12" width="6" height="6" fill="#1F1F1D"/>
<rect x="154" y="12" width="6" height="6" fill="#1F1F1D"/>
<rect x="122" y="12" width="6" height="6" fill="#1F1F1D"/>
<rect x="138" y="12" width="6" height="6" fill="#1F1F1D"/>
<rect x="216" y="12" width="12" height="6" fill="#1F1F1D"/>
<rect x="46" y="12" width="12" height="6" fill="#1F1F1D"/>
<rect x="212" y="71" width="12" height="6" fill="#1F1F1D"/>
<rect x="12" y="18" width="34" height="6" fill="#1F1F1D"/>
<rect y="30" width="6" height="29" fill="#1F1F1D"/>
<rect x="6" y="59" width="70" height="6" fill="#1F1F1D"/>
<rect x="17" y="71" width="59" height="6" fill="#1F1F1D"/>
<rect x="35" y="65" width="20" height="6" fill="#6AA236"/>
<path d="M67 65H76V59H82V65H87V71H67V65Z" fill="#6AA236"/>
<rect x="58" y="89" width="41" height="6" fill="#1F1F1D"/>
<rect x="105" y="89" width="169" height="6" fill="#1F1F1D"/>
<rect x="280" y="60" width="6" height="23" fill="#1F1F1D"/>
<rect x="240" y="30" width="11" height="6" fill="#1F1F1D"/>
<rect x="251" y="36" width="11" height="6" fill="#1F1F1D"/>
<rect x="76" y="77" width="18" height="6" fill="#1F1F1D"/>
<rect x="111" y="71" width="18" height="6" fill="#1F1F1D"/>
<rect x="159" y="66" width="17.0997" height="6" transform="rotate(89.8771 159 66)" fill="#1F1F1D"/>
<rect x="94" y="83" width="11" height="6" fill="#1F1F1D"/>
<rect x="64" y="28" width="7" height="3" fill="#1F1F1D"/>
<rect x="82" y="28" width="7" height="3" fill="#1F1F1D"/>
<rect x="129" y="83" width="18" height="6" fill="#6AA138"/>
<rect x="94" y="77" width="11" height="6" fill="#C9990C"/>
<rect x="87" y="71" width="12" height="6" fill="#6AA13A"/>
<rect x="99" y="65" width="30" height="6" fill="#6AA13A"/>
<rect x="76" y="71" width="11" height="6" fill="#377F30"/>
<rect x="99" y="71" width="12" height="6" fill="#E8BA08"/>
<rect x="153" y="83" width="23" height="6" fill="#C99A0A"/>
<rect x="159" y="77" width="23" height="6" fill="#E8B90A"/>
<rect x="159" y="71" width="29" height="6" fill="#FFD502"/>
<rect x="182" y="53" width="6" height="18" fill="#1F1F1D"/>
<rect x="194" y="41" width="30" height="6" fill="#1F1F1D"/>
<rect x="224" y="65" width="28" height="6" fill="#1F1F1D"/>
<rect x="76" y="65" width="6" height="6" fill="#1F1F1D"/>
</svg>
