<svg width="100" height="100" viewBox="0 0 100 100" fill="none" xmlns="http://www.w3.org/2000/svg">
<path fill-rule="evenodd" clip-rule="evenodd" d="M42.8571 1.02041V2.04082H40.8163H38.7755V6.12245V10.2041H35.7143H32.6531V11.2245V12.2449H29.5918H26.5306V11.2245V10.2041H25.5102H24.4898V9.18367V8.16327H23.4694H22.449V9.18367V10.2041H20.4082H18.3673V11.2245V12.2449H17.3469H16.3265V13.2653V14.2857H15.3061H14.2857V15.3061V16.3265H13.2653H12.2449V17.3469V18.3673H11.2245H10.2041V20.4082V22.449H9.18367H8.16327V23.4694V24.4898H9.18367H10.2041V25.5102V26.5306H11.2245H12.2449V29.5918V32.6531H11.2245H10.2041V35.7143V38.7755H6.12245H2.04082V41.8367V44.898H1.02041H0V50V55.102H1.02041H2.04082V58.1633V61.2245H6.12245H10.2041V63.2653V65.3061H11.2245H12.2449V67.3469V69.3878H13.2653H14.2857V70.4082V71.4286H13.2653H12.2449V72.449V73.4694H11.2245H10.2041V74.4898V75.5102H9.18367H8.16327V76.5306V77.551H9.18367H10.2041V78.5714V79.5918H11.2245H12.2449V81.6327V83.6735H13.2653H14.2857V84.6939V85.7143H15.3061H16.3265V86.7347V87.7551H18.3673H20.4082V88.7755V89.7959H21.4286H22.449V90.8163V91.8367H23.4694H24.4898V90.8163V89.7959H25.5102H26.5306V88.7755V87.7551H27.551H28.5714V86.7347V85.7143H29.5918H30.6122V86.7347V87.7551H32.6531H34.6939V88.7755V89.7959H36.7347H38.7755V93.8776V97.9592H41.8367H44.898V98.9796V100H50H55.102V98.9796V97.9592H58.1633H61.2245V93.8776V89.7959H64.2857H67.3469V88.7755V87.7551H70.4082H73.4694V88.7755V89.7959H74.4898H75.5102V90.8163V91.8367H76.5306H77.551V90.8163V89.7959H78.5714H79.5918V88.7755V87.7551H81.6327H83.6735V86.7347V85.7143H84.6939H85.7143V84.6939V83.6735H86.7347H87.7551V82.6531V81.6327H88.7755H89.7959V79.5918V77.551H90.8163H91.8367V76.5306V75.5102H90.8163H89.7959V74.4898V73.4694H88.7755H87.7551V70.4082V67.3469H88.7755H89.7959V64.2857V61.2245H93.8776H97.9592V59.1837V57.1429H98.9796H100V50V42.8571H98.9796H97.9592V40.8163V38.7755H93.8776H89.7959V35.7143V32.6531H88.7755H87.7551V29.5918V26.5306H88.7755H89.7959V25.5102V24.4898H90.8163H91.8367V23.4694V22.449H90.8163H89.7959V20.4082V18.3673H88.7755H87.7551V17.3469V16.3265H86.7347H85.7143V15.3061V14.2857H84.6939H83.6735V13.2653V12.2449H82.6531H81.6327V11.2245V10.2041H79.5918H77.551V9.18367V8.16327H76.5306H75.5102V9.18367V10.2041H74.4898H73.4694V11.2245V12.2449H70.4082H67.3469V11.2245V10.2041H64.2857H61.2245V6.12245V2.04082H60.2041H59.1837V1.02041V0H51.0204H42.8571V1.02041ZM55.102 3.06122V4.08163H57.1429H59.1837V8.16327V12.2449H62.2449H65.3061V13.2653V14.2857H67.3469H69.3878V15.3061V16.3265H71.4286H73.4694V15.3061V14.2857H74.4898H75.5102V13.2653V12.2449H77.551H79.5918V13.2653V14.2857H80.6123H81.6327V15.3061V16.3265H82.6531H83.6735V17.3469V18.3673H84.6939H85.7143V19.3878V20.4082H86.7347H87.7551V22.449V24.4898H86.7347H85.7143V25.5102V26.5306H84.6939H83.6735V28.5714V30.6122H84.6939H85.7143V32.6531V34.6939H86.7347H87.7551V37.7551V40.8163H91.8367H95.9184V42.8571V44.898H96.9388H97.9592V50V55.102H96.9388H95.9184V57.1429V59.1837H91.8367H87.7551V62.2449V65.3061H86.7347H85.7143V67.3469V69.3878H84.6939H83.6735V70.4082V71.4286H84.6939H85.7143V72.449V73.4694H86.7347H87.7551V74.4898V75.5102H88.7755H89.7959V76.5306V77.551H88.7755H87.7551V78.5714V79.5918H86.7347H85.7143V80.6123V81.6327H84.6939H83.6735V82.6531V83.6735H82.6531H81.6327V84.6939V85.7143H80.6123H79.5918V86.7347V87.7551H77.551H75.5102V86.7347V85.7143H74.4898H73.4694V84.6939V83.6735H71.4286H69.3878V84.6939V85.7143H67.3469H65.3061V86.7347V87.7551H62.2449H59.1837V91.8367V95.9184H50H40.8163V91.8367V87.7551H37.7551H34.6939V86.7347V85.7143H32.6531H30.6122V84.6939V83.6735H28.5714H26.5306V84.6939V85.7143H25.5102H24.4898V86.7347V87.7551H22.449H20.4082V86.7347V85.7143H19.3878H18.3673V84.6939V83.6735H17.3469H16.3265V82.6531V81.6327H15.3061H14.2857V80.6123V79.5918H13.2653H12.2449V77.551V75.5102H13.2653H14.2857V74.4898V73.4694H15.3061H16.3265V71.4286V69.3878H15.3061H14.2857V67.3469V65.3061H13.2653H12.2449V62.2449V59.1837H8.16327H4.08163V55.102V51.0204H3.06122H2.04082V50V48.9796H3.06122H4.08163V44.898V40.8163H8.16327H12.2449V37.7551V34.6939H13.2653H14.2857V32.6531V30.6122H15.3061H16.3265V28.5714V26.5306H15.3061H14.2857V25.5102V24.4898H13.2653H12.2449V22.449V20.4082H13.2653H14.2857V19.3878V18.3673H15.3061H16.3265V17.3469V16.3265H17.3469H18.3673V15.3061V14.2857H19.3878H20.4082V13.2653V12.2449H21.4286H22.449V11.2245V10.2041H23.4694H24.4898V11.2245V12.2449H25.5102H26.5306V13.2653V14.2857H27.551H28.5714V15.3061V16.3265H29.5918H30.6122V15.3061V14.2857H32.6531H34.6939V13.2653V12.2449H37.7551H40.8163V8.16327V4.08163H42.8571H44.898V3.06122V2.04082H50H55.102V3.06122ZM42.8571 25.5102V26.5306H40.8163H38.7755V27.551V28.5714H36.7347H34.6939V29.5918V30.6122H33.6735H32.6531V31.6327V32.6531H31.6327H30.6122V33.6735V34.6939H29.5918H28.5714V36.7347V38.7755H27.551H26.5306V41.8367V44.898H25.5102H24.4898V50V55.102H25.5102H26.5306V58.1633V61.2245H27.551H28.5714V63.2653V65.3061H29.5918H30.6122V66.3265V67.3469H31.6327H32.6531V68.3673V69.3878H33.6735H34.6939V70.4082V71.4286H36.7347H38.7755V72.449V73.4694H41.8367H44.898V74.4898V75.5102H50H55.102V74.4898V73.4694H58.1633H61.2245V72.449V71.4286H63.2653H65.3061V70.4082V69.3878H66.3265H67.3469V68.3673V67.3469H68.3673H69.3878V66.3265V65.3061H70.4082H71.4286V63.2653V61.2245H72.449H73.4694V59.1837V57.1429H74.4898H75.5102V50V42.8571H74.4898H73.4694V40.8163V38.7755H72.449H71.4286V36.7347V34.6939H70.4082H69.3878V33.6735V32.6531H68.3673H67.3469V31.6327V30.6122H66.3265H65.3061V29.5918V28.5714H63.2653H61.2245V27.551V26.5306H59.1837H57.1429V25.5102V24.4898H50H42.8571V25.5102ZM55.102 27.551V28.5714H58.1633H61.2245V29.5918V30.6122H62.2449H63.2653V31.6327V32.6531H65.3061H67.3469V34.6939V36.7347H68.3673H69.3878V37.7551V38.7755H70.4082H71.4286V41.8367V44.898H72.449H73.4694V50V55.102H72.449H71.4286V58.1633V61.2245H70.4082H69.3878V62.2449V63.2653H68.3673H67.3469V64.2857V65.3061H66.3265H65.3061V66.3265V67.3469H64.2857H63.2653V68.3673V69.3878H62.2449H61.2245V70.4082V71.4286H57.1429H53.0612V72.449V73.4694H50H46.9388V72.449V71.4286H43.8776H40.8163V70.4082V69.3878H38.7755H36.7347V68.3673V67.3469H35.7143H34.6939V66.3265V65.3061H33.6735H32.6531V64.2857V63.2653H31.6327H30.6122V61.2245V59.1837H29.5918H28.5714V56.1225V53.0612H27.551H26.5306V48.9796V44.898H27.551H28.5714V41.8367V38.7755H29.5918H30.6122V37.7551V36.7347H31.6327H32.6531V35.7143V34.6939H33.6735H34.6939V33.6735V32.6531H35.7143H36.7347V31.6327V30.6122H37.7551H38.7755V29.5918V28.5714H41.8367H44.898V27.551V26.5306H50H55.102V27.551Z" fill="#F6F5F5"/>
</svg>
